<?xml version="1.0" encoding="UTF-8" standalone="no"?>
<!-- Created with Inkscape (http://www.inkscape.org/) -->

<svg
   xmlns:dc="http://purl.org/dc/elements/1.1/"
   xmlns:cc="http://creativecommons.org/ns#"
   xmlns:rdf="http://www.w3.org/1999/02/22-rdf-syntax-ns#"
   xmlns:svg="http://www.w3.org/2000/svg"
   xmlns="http://www.w3.org/2000/svg"
   xmlns:sodipodi="http://sodipodi.sourceforge.net/DTD/sodipodi-0.dtd"
   xmlns:inkscape="http://www.inkscape.org/namespaces/inkscape"
   width="50"
   height="62"
   id="svg2999"
   version="1.1"
   inkscape:version="0.48.2 r9819"
   sodipodi:docname="Latin lowercase alpha.svg">
  <title
     id="title3786">Latin lowercase alpha</title>
  <defs
     id="defs3001" />
  <sodipodi:namedview
     id="base"
     pagecolor="#ffffff"
     bordercolor="#666666"
     borderopacity="1.0"
     inkscape:pageopacity="0.0"
     inkscape:pageshadow="2"
     inkscape:zoom="1.979899"
     inkscape:cx="43.456345"
     inkscape:cy="40.384019"
     inkscape:document-units="px"
     inkscape:current-layer="layer1"
     showgrid="true"
     inkscape:window-width="1440"
     inkscape:window-height="838"
     inkscape:window-x="-8"
     inkscape:window-y="-8"
     inkscape:window-maximized="1">
    <inkscape:grid
       type="xygrid"
       id="grid3014"
       empspacing="5"
       visible="true"
       enabled="true"
       snapvisiblegridlinesonly="true" />
  </sodipodi:namedview>
  <metadata
     id="metadata3004">
    <rdf:RDF>
      <cc:Work
         rdf:about="">
        <dc:format>image/svg+xml</dc:format>
        <dc:type
           rdf:resource="http://purl.org/dc/dcmitype/StillImage" />
        <dc:title>Latin lowercase alpha</dc:title>
      </cc:Work>
    </rdf:RDF>
  </metadata>
  <g
     inkscape:label="Layer 1"
     inkscape:groupmode="layer"
     id="layer1"
     transform="translate(0,-990.36218)">
    <path
       inkscape:connector-curvature="0"
       id="path3765"
       style="font-size:80px;font-style:normal;font-variant:normal;font-weight:normal;font-stretch:normal;text-align:start;line-height:125%;letter-spacing:0px;word-spacing:0px;writing-mode:lr-tb;text-anchor:start;fill:#ffffff;fill-opacity:1;stroke:none;font-family:Cam Cam SILSophiaL;-inkscape-font-specification:Cam Cam SILSophiaL"
       d="m 49.836388,1040.3156 -5.2,0 c -0.24,1.84 -0.48,2.96 -0.63999,3.36 -0.24001,0.4 -0.64001,0.56 -1.12001,0.56 -1.04,0 -1.92,-0.88 -2.72,-2.8 -0.47999,-0.8 -1.2,-3.12 -2.32,-6.88 3.2,-11.2 5.52,-19.28 6.96,-24.4 l -7.2,0 -3.76,12.88 c -2.08,-5.12 -4.08,-8.72 -6.08,-10.72 -2.31999,-2.08 -5.44,-3.1201 -9.44,-3.2001 -6.15999,0 -10.8,2.2401 -13.76,6.6401 -2.55999,3.68 -3.84,8.48 -3.84,14.4 0,6 1.36001,10.88 4.08,14.72 2.96,4.24 7.12001,6.32 12.48,6.32 6.07999,0 11.36,-2.88 16,-8.8 2.24,5.92 5.04,8.8 8.48,8.8 4.55999,0 7.2,-3.6 8.08,-10.88 m -19.27999,-6.32 c -2.48001,7.76 -6.08002,11.6 -10.72001,11.6 -7.67999,0 -11.44,-5.12 -11.44,-15.44 0,-10.56 3.36001,-15.84 10.08,-15.84 2.96001,0 5.76,2.64 8.24001,7.76 1.51999,3.36 2.79999,7.36 3.84,11.92" />
  </g>
</svg>
